<?xml version="1.0" encoding="UTF-8" standalone="no"?><svg xmlns="http://www.w3.org/2000/svg" xmlns:xlink="http://www.w3.org/1999/xlink" contentStyleType="text/css" height="592px" preserveAspectRatio="none" style="width:487px;height:592px;background:#FFFFFF;" version="1.1" viewBox="0 0 487 592" width="487px" zoomAndPan="magnify"><defs/><g><rect fill="none" height="26.2969" id="_title" style="stroke:none;stroke-width:1.0;" width="363" x="55" y="5"/><text fill="#000000" font-family="sans-serif" font-size="14" font-weight="bold" lengthAdjust="spacing" textLength="353" x="60" y="22.9951">SolarCalc - Modelo de Domínio Conceitual V1</text><!--MD5=[35a64b983c79880384a2fd9b61f0c24b]
class Usuario--><g id="elem_Usuario"><rect codeLine="11" fill="#FFFFFF" height="113.1875" id="Usuario" rx="2.5" ry="2.5" style="stroke:#000000;stroke-width:0.5;" width="84" x="36.5" y="60.7969"/><ellipse cx="51.5" cy="76.7969" fill="#ADD1B2" rx="11" ry="11" style="stroke:#181818;stroke-width:1.0;"/><path d="M54.4688,82.4375 Q53.8906,82.7344 53.25,82.875 Q52.6094,83.0313 51.9063,83.0313 Q49.4063,83.0313 48.0781,81.3906 Q46.7656,79.7344 46.7656,76.6094 Q46.7656,73.4844 48.0781,71.8281 Q49.4063,70.1719 51.9063,70.1719 Q52.6094,70.1719 53.25,70.3281 Q53.9063,70.4844 54.4688,70.7813 L54.4688,73.5 Q53.8438,72.9219 53.25,72.6563 Q52.6563,72.375 52.0313,72.375 Q50.6875,72.375 50,73.4531 Q49.3125,74.5156 49.3125,76.6094 Q49.3125,78.7031 50,79.7813 Q50.6875,80.8438 52.0313,80.8438 Q52.6563,80.8438 53.25,80.5781 Q53.8438,80.2969 54.4688,79.7188 L54.4688,82.4375 Z " fill="#000000"/><text fill="#000000" font-family="sans-serif" font-size="14" lengthAdjust="spacing" textLength="52" x="65.5" y="81.6436">Usuario</text><line style="stroke:#000000;stroke-width:0.5;" x1="37.5" x2="119.5" y1="92.7969" y2="92.7969"/><text fill="#000000" font-family="sans-serif" font-size="14" lengthAdjust="spacing" textLength="12" x="42.5" y="109.792">id</text><text fill="#000000" font-family="sans-serif" font-size="14" lengthAdjust="spacing" textLength="40" x="42.5" y="126.0889">nome</text><text fill="#000000" font-family="sans-serif" font-size="14" lengthAdjust="spacing" textLength="36" x="42.5" y="142.3857">email</text><text fill="#000000" font-family="sans-serif" font-size="14" lengthAdjust="spacing" textLength="43" x="42.5" y="158.6826">senha</text><line style="stroke:#000000;stroke-width:0.5;" x1="37.5" x2="119.5" y1="165.9844" y2="165.9844"/></g><!--MD5=[74e36fb2b647c2f688adf7ed4adc86d9]
class Localizacao--><g id="elem_Localizacao"><rect codeLine="18" fill="#FFFFFF" height="145.7813" id="Localizacao" rx="2.5" ry="2.5" style="stroke:#000000;stroke-width:0.5;" width="167" x="156" y="44.2969"/><ellipse cx="196.2" cy="60.2969" fill="#ADD1B2" rx="11" ry="11" style="stroke:#181818;stroke-width:1.0;"/><path d="M199.1688,65.9375 Q198.5906,66.2344 197.95,66.375 Q197.3094,66.5313 196.6063,66.5313 Q194.1063,66.5313 192.7781,64.8906 Q191.4656,63.2344 191.4656,60.1094 Q191.4656,56.9844 192.7781,55.3281 Q194.1063,53.6719 196.6063,53.6719 Q197.3094,53.6719 197.95,53.8281 Q198.6063,53.9844 199.1688,54.2813 L199.1688,57 Q198.5438,56.4219 197.95,56.1563 Q197.3563,55.875 196.7313,55.875 Q195.3875,55.875 194.7,56.9531 Q194.0125,58.0156 194.0125,60.1094 Q194.0125,62.2031 194.7,63.2813 Q195.3875,64.3438 196.7313,64.3438 Q197.3563,64.3438 197.95,64.0781 Q198.5438,63.7969 199.1688,63.2188 L199.1688,65.9375 Z " fill="#000000"/><text fill="#000000" font-family="sans-serif" font-size="14" lengthAdjust="spacing" textLength="79" x="215.8" y="65.1436">Localizacao</text><line style="stroke:#000000;stroke-width:0.5;" x1="157" x2="322" y1="76.2969" y2="76.2969"/><text fill="#000000" font-family="sans-serif" font-size="14" lengthAdjust="spacing" textLength="12" x="162" y="93.292">id</text><text fill="#000000" font-family="sans-serif" font-size="14" lengthAdjust="spacing" textLength="46" x="162" y="109.5889">cidade</text><text fill="#000000" font-family="sans-serif" font-size="14" lengthAdjust="spacing" textLength="48" x="162" y="125.8857">estado</text><text fill="#000000" font-family="sans-serif" font-size="14" lengthAdjust="spacing" textLength="51" x="162" y="142.1826">latitude</text><text fill="#000000" font-family="sans-serif" font-size="14" lengthAdjust="spacing" textLength="65" x="162" y="158.4795">longitude</text><text fill="#000000" font-family="sans-serif" font-size="14" lengthAdjust="spacing" textLength="155" x="162" y="174.7764">irradiacao_solar_media</text><line style="stroke:#000000;stroke-width:0.5;" x1="157" x2="322" y1="182.0781" y2="182.0781"/></g><!--MD5=[9b24c2f8801d2ca4f72bea01c45f4f30]
class Imovel--><g id="elem_Imovel"><rect codeLine="27" fill="#FFFFFF" height="113.1875" id="Imovel" rx="2.5" ry="2.5" style="stroke:#000000;stroke-width:0.5;" width="118" x="358.5" y="60.7969"/><ellipse cx="392.4" cy="76.7969" fill="#ADD1B2" rx="11" ry="11" style="stroke:#181818;stroke-width:1.0;"/><path d="M395.3688,82.4375 Q394.7906,82.7344 394.15,82.875 Q393.5094,83.0313 392.8063,83.0313 Q390.3063,83.0313 388.9781,81.3906 Q387.6656,79.7344 387.6656,76.6094 Q387.6656,73.4844 388.9781,71.8281 Q390.3063,70.1719 392.8063,70.1719 Q393.5094,70.1719 394.15,70.3281 Q394.8063,70.4844 395.3688,70.7813 L395.3688,73.5 Q394.7438,72.9219 394.15,72.6563 Q393.5563,72.375 392.9313,72.375 Q391.5875,72.375 390.9,73.4531 Q390.2125,74.5156 390.2125,76.6094 Q390.2125,78.7031 390.9,79.7813 Q391.5875,80.8438 392.9313,80.8438 Q393.5563,80.8438 394.15,80.5781 Q394.7438,80.2969 395.3688,79.7188 L395.3688,82.4375 Z " fill="#000000"/><text fill="#000000" font-family="sans-serif" font-size="14" lengthAdjust="spacing" textLength="44" x="410.6" y="81.6436">Imovel</text><line style="stroke:#000000;stroke-width:0.5;" x1="359.5" x2="475.5" y1="92.7969" y2="92.7969"/><text fill="#000000" font-family="sans-serif" font-size="14" lengthAdjust="spacing" textLength="12" x="364.5" y="109.792">id</text><text fill="#000000" font-family="sans-serif" font-size="14" lengthAdjust="spacing" textLength="77" x="364.5" y="126.0889">tipo_imovel</text><text fill="#000000" font-family="sans-serif" font-size="14" lengthAdjust="spacing" textLength="106" x="364.5" y="142.3857">area_disponivel</text><text fill="#000000" font-family="sans-serif" font-size="14" lengthAdjust="spacing" textLength="102" x="364.5" y="158.6826">tipo_instalacao</text><line style="stroke:#000000;stroke-width:0.5;" x1="359.5" x2="475.5" y1="165.9844" y2="165.9844"/></g><!--MD5=[dffa7def871a4f070028a6744eb3b974]
class Simulacao--><g id="elem_Simulacao"><rect codeLine="34" fill="#FFFFFF" height="129.4844" id="Simulacao" rx="2.5" ry="2.5" style="stroke:#000000;stroke-width:0.5;" width="211" x="109" y="258.7969"/><ellipse cx="175.25" cy="274.7969" fill="#ADD1B2" rx="11" ry="11" style="stroke:#181818;stroke-width:1.0;"/><path d="M178.2188,280.4375 Q177.6406,280.7344 177,280.875 Q176.3594,281.0313 175.6563,281.0313 Q173.1563,281.0313 171.8281,279.3906 Q170.5156,277.7344 170.5156,274.6094 Q170.5156,271.4844 171.8281,269.8281 Q173.1563,268.1719 175.6563,268.1719 Q176.3594,268.1719 177,268.3281 Q177.6563,268.4844 178.2188,268.7813 L178.2188,271.5 Q177.5938,270.9219 177,270.6563 Q176.4063,270.375 175.7813,270.375 Q174.4375,270.375 173.75,271.4531 Q173.0625,272.5156 173.0625,274.6094 Q173.0625,276.7031 173.75,277.7813 Q174.4375,278.8438 175.7813,278.8438 Q176.4063,278.8438 177,278.5781 Q177.5938,278.2969 178.2188,277.7188 L178.2188,280.4375 Z " fill="#000000"/><text fill="#000000" font-family="sans-serif" font-size="14" lengthAdjust="spacing" textLength="70" x="195.75" y="279.6436">Simulacao</text><line style="stroke:#000000;stroke-width:0.5;" x1="110" x2="319" y1="290.7969" y2="290.7969"/><text fill="#000000" font-family="sans-serif" font-size="14" lengthAdjust="spacing" textLength="12" x="115" y="307.792">id</text><text fill="#000000" font-family="sans-serif" font-size="14" lengthAdjust="spacing" textLength="106" x="115" y="324.0889">data_simulacao</text><text fill="#000000" font-family="sans-serif" font-size="14" lengthAdjust="spacing" textLength="157" x="115" y="340.3857">consumo_mensal_kwh</text><text fill="#000000" font-family="sans-serif" font-size="14" lengthAdjust="spacing" textLength="135" x="115" y="356.6826">valor_conta_mensal</text><text fill="#000000" font-family="sans-serif" font-size="14" lengthAdjust="spacing" textLength="199" x="115" y="372.9795">valor_investimento_estimado</text><line style="stroke:#000000;stroke-width:0.5;" x1="110" x2="319" y1="380.2813" y2="380.2813"/></g><!--MD5=[383ac04f5c8898de83a491f9862b3c6c]
class Telhado--><g id="elem_Telhado"><rect codeLine="42" fill="#FFFFFF" height="145.7813" id="Telhado" rx="2.5" ry="2.5" style="stroke:#000000;stroke-width:0.5;" width="125" x="355" y="250.2969"/><ellipse cx="386.65" cy="266.2969" fill="#ADD1B2" rx="11" ry="11" style="stroke:#181818;stroke-width:1.0;"/><path d="M389.6188,271.9375 Q389.0406,272.2344 388.4,272.375 Q387.7594,272.5313 387.0563,272.5313 Q384.5563,272.5313 383.2281,270.8906 Q381.9156,269.2344 381.9156,266.1094 Q381.9156,262.9844 383.2281,261.3281 Q384.5563,259.6719 387.0563,259.6719 Q387.7594,259.6719 388.4,259.8281 Q389.0563,259.9844 389.6188,260.2813 L389.6188,263 Q388.9938,262.4219 388.4,262.1563 Q387.8063,261.875 387.1813,261.875 Q385.8375,261.875 385.15,262.9531 Q384.4625,264.0156 384.4625,266.1094 Q384.4625,268.2031 385.15,269.2813 Q385.8375,270.3438 387.1813,270.3438 Q387.8063,270.3438 388.4,270.0781 Q388.9938,269.7969 389.6188,269.2188 L389.6188,271.9375 Z " fill="#000000"/><text fill="#000000" font-family="sans-serif" font-size="14" lengthAdjust="spacing" textLength="56" x="404.35" y="271.1436">Telhado</text><line style="stroke:#000000;stroke-width:0.5;" x1="356" x2="479" y1="282.2969" y2="282.2969"/><text fill="#000000" font-family="sans-serif" font-size="14" lengthAdjust="spacing" textLength="12" x="361" y="299.292">id</text><text fill="#000000" font-family="sans-serif" font-size="14" lengthAdjust="spacing" textLength="85" x="361" y="315.5889">tipo_telhado</text><text fill="#000000" font-family="sans-serif" font-size="14" lengthAdjust="spacing" textLength="68" x="361" y="331.8857">inclinacao</text><text fill="#000000" font-family="sans-serif" font-size="14" lengthAdjust="spacing" textLength="113" x="361" y="348.1826">orientacao_solar</text><text fill="#000000" font-family="sans-serif" font-size="14" lengthAdjust="spacing" textLength="57" x="361" y="364.4795">area_util</text><text fill="#000000" font-family="sans-serif" font-size="14" lengthAdjust="spacing" textLength="105" x="361" y="380.7764">possui_sombra</text><line style="stroke:#000000;stroke-width:0.5;" x1="356" x2="479" y1="388.0781" y2="388.0781"/></g><!--MD5=[48fd34b485cf3b6f7b3f35facae8d0ce]
class SistemaFotovoltaico--><g id="elem_SistemaFotovoltaico"><rect codeLine="51" fill="#FFFFFF" height="129.4844" id="SistemaFotovoltaico" rx="2.5" ry="2.5" style="stroke:#000000;stroke-width:0.5;" width="195" x="7" y="456.2969"/><ellipse cx="33.25" cy="472.2969" fill="#ADD1B2" rx="11" ry="11" style="stroke:#181818;stroke-width:1.0;"/><path d="M36.2188,477.9375 Q35.6406,478.2344 35,478.375 Q34.3594,478.5313 33.6563,478.5313 Q31.1563,478.5313 29.8281,476.8906 Q28.5156,475.2344 28.5156,472.1094 Q28.5156,468.9844 29.8281,467.3281 Q31.1563,465.6719 33.6563,465.6719 Q34.3594,465.6719 35,465.8281 Q35.6563,465.9844 36.2188,466.2813 L36.2188,469 Q35.5938,468.4219 35,468.1563 Q34.4063,467.875 33.7813,467.875 Q32.4375,467.875 31.75,468.9531 Q31.0625,470.0156 31.0625,472.1094 Q31.0625,474.2031 31.75,475.2813 Q32.4375,476.3438 33.7813,476.3438 Q34.4063,476.3438 35,476.0781 Q35.5938,475.7969 36.2188,475.2188 L36.2188,477.9375 Z " fill="#000000"/><text fill="#000000" font-family="sans-serif" font-size="14" lengthAdjust="spacing" textLength="138" x="49.75" y="477.1436">SistemaFotovoltaico</text><line style="stroke:#000000;stroke-width:0.5;" x1="8" x2="201" y1="488.2969" y2="488.2969"/><text fill="#000000" font-family="sans-serif" font-size="14" lengthAdjust="spacing" textLength="12" x="13" y="505.292">id</text><text fill="#000000" font-family="sans-serif" font-size="14" lengthAdjust="spacing" textLength="134" x="13" y="521.5889">quantidade_paineis</text><text fill="#000000" font-family="sans-serif" font-size="14" lengthAdjust="spacing" textLength="121" x="13" y="537.8857">potencia_sistema</text><text fill="#000000" font-family="sans-serif" font-size="14" lengthAdjust="spacing" textLength="115" x="13" y="554.1826">custo_instalacao</text><text fill="#000000" font-family="sans-serif" font-size="14" lengthAdjust="spacing" textLength="183" x="13" y="570.4795">geracao_mensal_estimada</text><line style="stroke:#000000;stroke-width:0.5;" x1="8" x2="201" y1="577.7813" y2="577.7813"/></g><!--MD5=[461dda5a9a8954bc81674214adbc0b0c]
class ResultadoViabilidade--><g id="elem_ResultadoViabilidade"><rect codeLine="59" fill="#FFFFFF" height="129.4844" id="ResultadoViabilidade" rx="2.5" ry="2.5" style="stroke:#000000;stroke-width:0.5;" width="175" x="237" y="456.2969"/><ellipse cx="252" cy="472.2969" fill="#ADD1B2" rx="11" ry="11" style="stroke:#181818;stroke-width:1.0;"/><path d="M254.9688,477.9375 Q254.3906,478.2344 253.75,478.375 Q253.1094,478.5313 252.4063,478.5313 Q249.9063,478.5313 248.5781,476.8906 Q247.2656,475.2344 247.2656,472.1094 Q247.2656,468.9844 248.5781,467.3281 Q249.9063,465.6719 252.4063,465.6719 Q253.1094,465.6719 253.75,465.8281 Q254.4063,465.9844 254.9688,466.2813 L254.9688,469 Q254.3438,468.4219 253.75,468.1563 Q253.1563,467.875 252.5313,467.875 Q251.1875,467.875 250.5,468.9531 Q249.8125,470.0156 249.8125,472.1094 Q249.8125,474.2031 250.5,475.2813 Q251.1875,476.3438 252.5313,476.3438 Q253.1563,476.3438 253.75,476.0781 Q254.3438,475.7969 254.9688,475.2188 L254.9688,477.9375 Z " fill="#000000"/><text fill="#000000" font-family="sans-serif" font-size="14" lengthAdjust="spacing" textLength="143" x="266" y="477.1436">ResultadoViabilidade</text><line style="stroke:#000000;stroke-width:0.5;" x1="238" x2="411" y1="488.2969" y2="488.2969"/><text fill="#000000" font-family="sans-serif" font-size="14" lengthAdjust="spacing" textLength="12" x="243" y="505.292">id</text><text fill="#000000" font-family="sans-serif" font-size="14" lengthAdjust="spacing" textLength="125" x="243" y="521.5889">economia_mensal</text><text fill="#000000" font-family="sans-serif" font-size="14" lengthAdjust="spacing" textLength="112" x="243" y="537.8857">economia_anual</text><text fill="#000000" font-family="sans-serif" font-size="14" lengthAdjust="spacing" textLength="98" x="243" y="554.1826">payback_anos</text><text fill="#000000" font-family="sans-serif" font-size="14" lengthAdjust="spacing" textLength="37" x="243" y="570.4795">viavel</text><line style="stroke:#000000;stroke-width:0.5;" x1="238" x2="411" y1="577.7813" y2="577.7813"/></g><!--MD5=[ff21f7bb566303d2fc49d1a5e88c3da7]
link Usuario to Localizacao--><!--MD5=[08a8e2fedb65072b032c506957c09b2f]
link Localizacao to Imovel--><!--MD5=[ad7f7096e5752c1d1de54a54efc0dc31]
link Usuario to Simulacao--><!--MD5=[ad7f7096e5752c1d1de54a54efc0dc31]
link Usuario to Simulacao--><g id="link_Usuario_Simulacao"><path codeLine="76" d="M116.67,173.8569 C116.67,200.0669 116.67,231.3369 116.67,258.4869 " fill="none" id="Usuario-Simulacao-1" style="stroke:#000000;stroke-width:1.0;"/><text fill="#000000" font-family="sans-serif" font-size="13" lengthAdjust="spacing" textLength="8" x="113.048" y="194.128">1</text><text fill="#000000" font-family="sans-serif" font-size="13" lengthAdjust="spacing" textLength="10" x="95.423" y="247.6256">N</text></g><!--MD5=[6ec4f86c9eb75a5d9c1d9622549f70ff]
link Localizacao to Simulacao--><!--MD5=[6ec4f86c9eb75a5d9c1d9622549f70ff]
link Localizacao to Simulacao--><g id="link_Localizacao_Simulacao"><path codeLine="77" d="M265.33,190.5069 C265.33,212.7069 265.33,236.9369 265.33,258.5369 " fill="none" id="Localizacao-Simulacao-1" style="stroke:#000000;stroke-width:1.0;"/><text fill="#000000" font-family="sans-serif" font-size="13" lengthAdjust="spacing" textLength="8" x="259.3425" y="210.0304">1</text><text fill="#000000" font-family="sans-serif" font-size="13" lengthAdjust="spacing" textLength="10" x="260.3427" y="247.6811">N</text></g><!--MD5=[88128de37070ec8630665c857e3bf3ee]
link Imovel to Telhado--><!--MD5=[88128de37070ec8630665c857e3bf3ee]
link Imovel to Telhado--><g id="link_Imovel_Telhado"><path codeLine="79" d="M437.17,173.8569 C437.17,197.4469 437.17,225.1369 437.17,250.2269 " fill="none" id="Imovel-Telhado-1" style="stroke:#000000;stroke-width:1.0;"/><text fill="#000000" font-family="sans-serif" font-size="13" lengthAdjust="spacing" textLength="8" x="431.1777" y="194.128">1</text><text fill="#000000" font-family="sans-serif" font-size="13" lengthAdjust="spacing" textLength="24" x="413.961" y="239.0031">0..1</text></g><!--MD5=[0c24a1fcddac1b686dc22066bfa52a9d]
link Simulacao to SistemaFotovoltaico--><!--MD5=[0c24a1fcddac1b686dc22066bfa52a9d]
link Simulacao to SistemaFotovoltaico--><g id="link_Simulacao_SistemaFotovoltaico"><path codeLine="80" d="M171,387.9669 C171,409.7869 171,434.1469 171,455.9869 " fill="none" id="Simulacao-SistemaFotovoltaico-1" style="stroke:#000000;stroke-width:1.0;"/><text fill="#000000" font-family="sans-serif" font-size="13" lengthAdjust="spacing" textLength="8" x="157.5078" y="408.3581">1</text><text fill="#000000" font-family="sans-serif" font-size="13" lengthAdjust="spacing" textLength="8" x="169.8359" y="445.1256">1</text></g><!--MD5=[7c4d135cd8a40d2fcc72b826f4bfe99e]
link Simulacao to ResultadoViabilidade--><!--MD5=[7c4d135cd8a40d2fcc72b826f4bfe99e]
link Simulacao to ResultadoViabilidade--><g id="link_Simulacao_ResultadoViabilidade"><path codeLine="81" d="M292.33,387.9669 C292.33,409.7869 292.33,434.1469 292.33,455.9869 " fill="none" id="Simulacao-ResultadoViabilidade-1" style="stroke:#000000;stroke-width:1.0;"/><text fill="#000000" font-family="sans-serif" font-size="13" lengthAdjust="spacing" textLength="8" x="292.8666" y="408.3581">1</text><text fill="#000000" font-family="sans-serif" font-size="13" lengthAdjust="spacing" textLength="8" x="280.3739" y="445.1256">1</text></g><!--MD5=[48f6b0ba1dd053283f63fe484ca9e460]
link SistemaFotovoltaico to ResultadoViabilidade--><!--MD5=[f6a1c8281d45c87516da34716bc5514e]
link Imovel to Simulacao--><g id="link_Imovel_Simulacao"><path codeLine="78" d="M358.4,136.2969 C347.25,136.2969 339,136.2969 339,136.2969 C339,136.2969 339,323.2969 339,323.2969 C339,323.2969 331.46,323.2969 320.09,323.2969 " fill="none" id="Imovel-Simulacao" style="stroke:#000000;stroke-width:1.0;"/><text fill="#000000" font-family="sans-serif" font-size="13" lengthAdjust="spacing" textLength="8" x="342.3153" y="134.8337">1</text><text fill="#000000" font-family="sans-serif" font-size="13" lengthAdjust="spacing" textLength="10" x="327.8659" y="319.8241">N</text></g><!--MD5=[566c2adcafb5d472be737f69b2a7a235]
@startuml
title SolarCalc - Modelo de Domínio Conceitual V1

skinparam classAttributeIconSize 0
skinparam shadowing false
skinparam linetype ortho
skinparam classBackgroundColor white
skinparam classBorderColor black
skinparam classFontColor black
skinparam ArrowColor black

class Usuario {
  id
  nome
  email
  senha
}

class Localizacao {
  id
  cidade
  estado
  latitude
  longitude
  irradiacao_solar_media
}

class Imovel {
  id
  tipo_imovel
  area_disponivel
  tipo_instalacao
}

class Simulacao {
  id
  data_simulacao
  consumo_mensal_kwh
  valor_conta_mensal
  valor_investimento_estimado
}

class Telhado {
  id
  tipo_telhado
  inclinacao
  orientacao_solar
  area_util
  possui_sombra
}

class SistemaFotovoltaico {
  id
  quantidade_paineis
  potencia_sistema
  custo_instalacao
  geracao_mensal_estimada
}

class ResultadoViabilidade {
  id
  economia_mensal
  economia_anual
  payback_anos
  viavel
}

Usuario -[hidden]right- Localizacao
Localizacao -[hidden]right- Imovel
Usuario -[hidden]down- Simulacao
Localizacao -[hidden]down- Simulacao
Imovel -[hidden]down- Telhado
Simulacao -[hidden]down- SistemaFotovoltaico
Simulacao -[hidden]down- ResultadoViabilidade
SistemaFotovoltaico -[hidden]right- ResultadoViabilidade

Usuario "1" - - "N" Simulacao
Localizacao "1" - - "N" Simulacao
Imovel "1" - - "N" Simulacao
Imovel "1" - - "0..1" Telhado
Simulacao "1" - - "1" SistemaFotovoltaico
Simulacao "1" - - "1" ResultadoViabilidade
@enduml

PlantUML version 1.2022.7(Mon Aug 22 17:01:30 UTC 2022)
(GPL source distribution)
Java Runtime: OpenJDK Runtime Environment
JVM: OpenJDK 64-Bit Server VM
Default Encoding: UTF-8
Language: en
Country: null
--></g></svg>